<svg xmlns="http://www.w3.org/2000/svg" viewBox="0 0 110 110"><defs><style>.cls-1{fill:#fff;}</style></defs><title>Asset 2</title><g id="Layer_2" data-name="Layer 2"><g id="Layer_1-2" data-name="Layer 1"><polygon class="cls-1" points="72.73 0 72.73 7.21 102.79 7.21 102.79 51.09 110 51.09 110 0 72.73 0"/><rect class="cls-1" y="60.11" width="7.21" height="39.67"/><rect class="cls-1" x="8.42" width="36.07" height="7.21"/><polygon class="cls-1" points="102.79 102.79 78.14 102.79 78.14 110 110 110 110 90.77 102.79 90.77 102.79 102.79"/><path class="cls-1" d="M15,52.3H49.89V17.43H15Zm4.81-30.06H45.08V47.49H19.84Z"/><path class="cls-1" d="M93.47,17.43H58.61V52.3H93.47ZM88.66,47.49H63.42V22.24H88.66Z"/><path class="cls-1" d="M15,95H49.89V60.11H15Zm4.81-30H45.08V90.16H19.84Z"/><polygon class="cls-1" points="93.77 69.73 88.96 69.73 88.96 90.16 70.93 90.16 70.93 94.97 93.77 94.97 93.77 69.73"/><polygon class="cls-1" points="63.72 64.92 78.14 64.92 78.14 60.11 58.91 60.11 58.91 75.14 63.72 75.14 63.72 64.92"/><polygon class="cls-1" points="85.96 75.14 81.15 75.14 81.15 81.75 72.13 81.75 72.13 86.56 85.96 86.56 85.96 75.14"/><polygon class="cls-1" points="65.52 68.53 65.52 77.54 73.93 77.54 73.93 72.73 70.33 72.73 70.33 68.53 65.52 68.53"/><rect class="cls-1" x="76.34" y="66.72" width="9.02" height="4.81"/><polygon class="cls-1" points="64.32 79.34 59.51 79.34 59.51 88.36 67.92 88.36 67.92 83.55 64.32 83.55 64.32 79.34"/><rect class="cls-1" x="26.45" y="28.85" width="11.42" height="11.42"/><rect class="cls-1" x="70.33" y="28.85" width="11.42" height="11.42"/><rect class="cls-1" x="26.45" y="72.13" width="11.42" height="11.42"/></g></g></svg>