<svg xmlns="http://www.w3.org/2000/svg" viewBox="0 0 171.2 111.5"><defs><style>.cls-1{fill:#72b842;stroke:#fff;stroke-miterlimit:10;stroke-width:8px;}.cls-2{fill:#fff;}</style></defs><title>Asset 4</title><g id="Layer_2" data-name="Layer 2"><g id="Layer_1-2" data-name="Layer 1"><rect class="cls-1" x="4" y="4" width="163.2" height="103.5" rx="8.89"/><circle class="cls-2" cx="42.29" cy="31.8" r="15.01"/><path class="cls-2" d="M41.9,39.28s23.35,3.08,23.35,12.85v9.79c0,3.4-5,6.16-11.19,6.16H41.9"/><path class="cls-2" d="M41.9,39.28S18.55,42.36,18.55,52.13v9.79c0,3.4,5,6.16,11.19,6.16H41.9"/><rect class="cls-2" x="76.1" y="33.07" width="77.53" height="6.2"/><rect class="cls-2" x="76.03" y="20.28" width="59.07" height="6.2"/><rect class="cls-2" x="76.1" y="46.25" width="77.53" height="6.2"/><rect class="cls-2" x="18.73" y="74.55" width="134.9" height="6.2"/><rect class="cls-2" x="18.73" y="87.34" width="134.9" height="6.2"/><rect class="cls-2" x="76.03" y="59.04" width="59.07" height="6.2"/></g></g></svg>