<svg xmlns="http://www.w3.org/2000/svg" viewBox="0 0 172 152.5"><defs><style>.cls-1,.cls-3{fill:none;stroke-linecap:round;stroke-miterlimit:10;}.cls-1{stroke:#fff;stroke-width:8px;}.cls-2{fill:#fff;}.cls-3{stroke:#72b842;stroke-width:6px;}</style></defs><title>Asset 5</title><g id="Layer_2" data-name="Layer 2"><g id="Layer_1-2" data-name="Layer 1"><circle class="cls-1" cx="65.39" cy="87.11" r="61.39"/><path class="cls-2" d="M36.66,75.57,65.6,113.51,53.37,114C62.11,103.09,71,92.6,80.06,82.18s18.33-20.63,27.87-30.61,19.35-19.71,29.73-28.84a203.51,203.51,0,0,1,16.18-13,99.37,99.37,0,0,1,8.72-5.6A46.45,46.45,0,0,1,172,0a46,46,0,0,0-8.93,5,99.94,99.94,0,0,0-8,6.3c-5.16,4.46-10,9.28-14.68,14.23C131,35.46,122.26,46,113.79,56.66S97.15,78.33,89.18,89.41s-15.79,22.35-23.24,33.64l-5.27,8-7-7.53L21.34,88.43Z"/><line class="cls-3" x1="114.5" y1="40.5" x2="103" y2="52"/><line class="cls-3" x1="123.89" y1="48.95" x2="113.61" y2="61.55"/></g></g></svg>